# This file uses centimeters as units for non-parametric coordinates.

mtllib puerta.mtl
g default
v -0.069742 -1.470204 -0.035761
v 0.091751 -1.470204 -0.035761
v -0.069742 1.547943 -0.035761
v 0.091751 1.547943 -0.035761
v -0.069742 1.547943 -1.654761
v 0.091751 1.547943 -1.654761
v -0.069742 -1.470204 -1.654761
v 0.091751 -1.470204 -1.654761
vt 0.019489 0.548064
vt 0.036446 0.548064
vt 0.036446 0.565021
vt 0.019489 0.565021
vt 0.036446 0.581978
vt 0.019489 0.581978
vt 0.036446 0.598935
vt 0.019489 0.598935
vt 0.036446 0.615892
vt 0.019489 0.615892
vt 0.000000 0.000000
vt 1.000000 0.000000
vt 1.000000 1.000000
vt 0.000000 1.000000
vt 1.000000 0.000000
vt 0.000000 0.000000
vt 0.000000 1.000000
vt 1.000000 1.000000
vn 0.000000 0.000000 1.000000
vn 0.000000 0.000000 1.000000
vn 0.000000 0.000000 1.000000
vn 0.000000 0.000000 1.000000
vn 0.000000 1.000000 0.000000
vn 0.000000 1.000000 0.000000
vn 0.000000 1.000000 0.000000
vn 0.000000 1.000000 0.000000
vn 0.000000 0.000000 -1.000000
vn 0.000000 0.000000 -1.000000
vn 0.000000 0.000000 -1.000000
vn 0.000000 0.000000 -1.000000
vn 0.000000 -1.000000 0.000000
vn 0.000000 -1.000000 0.000000
vn 0.000000 -1.000000 0.000000
vn 0.000000 -1.000000 0.000000
vn 1.000000 0.000000 0.000000
vn 1.000000 0.000000 0.000000
vn 1.000000 0.000000 0.000000
vn 1.000000 0.000000 0.000000
vn -1.000000 0.000000 0.000000
vn -1.000000 0.000000 0.000000
vn -1.000000 0.000000 0.000000
vn -1.000000 0.000000 0.000000
s off
g puerta7:pCube299
usemtl puerta7:lambert23SG2
f 1/1/1 2/2/2 4/3/3 3/4/4
f 3/4/5 4/3/6 6/5/7 5/6/8
f 5/6/9 6/5/10 8/7/11 7/8/12
f 7/8/13 8/7/14 2/9/15 1/10/16
f 2/11/17 8/12/18 6/13/19 4/14/20
f 7/15/21 1/16/22 3/17/23 5/18/24
