# This file uses centimeters as units for non-parametric coordinates.

mtllib cuadro.mtl
g default
v -0.675542 2.074936 -1.229293
v 0.941206 2.074936 -1.229293
v -0.675542 4.371190 -1.229293
v 0.941206 4.371190 -1.229293
v -0.675542 4.371190 -1.416200
v 0.941206 4.371190 -1.416200
v -0.675542 2.074936 -1.416200
v 0.941206 2.074936 -1.416200
vt 0.021528 0.552557
vt 0.034579 0.552557
vt 0.021528 0.565607
vt 0.034579 0.565607
vt 0.021528 0.578658
vt 0.034579 0.578658
vt 0.021528 0.591708
vt 0.034579 0.591708
vt 0.021528 0.604758
vt 0.034579 0.604758
vt 0.047629 0.552557
vt 0.047629 0.565607
vt 0.008478 0.552557
vt 0.008478 0.565607
vt 0.000000 1.000000
vt 1.000000 1.000000
vt 1.000000 -0.000000
vt 0.000000 -0.000000
vn 0.000000 0.000000 1.000000
vn 0.000000 0.000000 1.000000
vn 0.000000 0.000000 1.000000
vn 0.000000 0.000000 1.000000
vn 0.000000 1.000000 0.000000
vn 0.000000 1.000000 0.000000
vn 0.000000 1.000000 0.000000
vn 0.000000 1.000000 0.000000
vn 0.000000 0.000000 -1.000000
vn 0.000000 0.000000 -1.000000
vn 0.000000 0.000000 -1.000000
vn 0.000000 0.000000 -1.000000
vn 0.000000 -1.000000 0.000000
vn 0.000000 -1.000000 0.000000
vn 0.000000 -1.000000 0.000000
vn 0.000000 -1.000000 0.000000
vn 1.000000 0.000000 0.000000
vn 1.000000 0.000000 0.000000
vn 1.000000 0.000000 0.000000
vn 1.000000 0.000000 0.000000
vn -1.000000 0.000000 0.000000
vn -1.000000 0.000000 0.000000
vn -1.000000 0.000000 0.000000
vn -1.000000 0.000000 0.000000
s off
g pCube1
usemtl lambert2SG
f 1/1/1 2/2/2 4/4/3 3/3/4
f 3/3/5 4/4/6 6/6/7 5/5/8
f 5/15/9 6/16/10 8/17/11 7/18/12
f 7/7/13 8/8/14 2/10/15 1/9/16
f 2/2/17 8/11/18 6/12/19 4/4/20
f 7/13/21 1/1/22 3/3/23 5/14/24
